<svg width="734" height="345" viewBox="0 0 734 345" fill="none" xmlns="http://www.w3.org/2000/svg">
<path d="M103 23.5C103 29.8513 97.8513 35 91.5 35C85.1487 35 80 29.8513 80 23.5C80 17.1487 85.1487 12 91.5 12C97.8513 12 103 17.1487 103 23.5Z" fill="#4D5AFE"/>
<path d="M247 11.5C247 17.8513 241.851 23 235.5 23C229.149 23 224 17.8513 224 11.5C224 5.14873 229.149 0 235.5 0C241.851 0 247 5.14873 247 11.5Z" fill="#4D5AFE"/>
<path d="M23 144.5C23 150.851 17.8513 156 11.5 156C5.14873 156 0 150.851 0 144.5C0 138.149 5.14873 133 11.5 133C17.8513 133 23 138.149 23 144.5Z" fill="#4D5AFE"/>
<path d="M67 281.5C67 287.851 61.8513 293 55.5 293C49.1487 293 44 287.851 44 281.5C44 275.149 49.1487 270 55.5 270C61.8513 270 67 275.149 67 281.5Z" fill="#4D5AFE"/>
<path d="M202 333.5C202 339.851 196.851 345 190.5 345C184.149 345 179 339.851 179 333.5C179 327.149 184.149 322 190.5 322C196.851 322 202 327.149 202 333.5Z" fill="#4D5AFE"/>
<path d="M327 260C327 266.627 321.627 272 315 272C308.373 272 303 266.627 303 260C303 253.373 308.373 248 315 248C321.627 248 327 253.373 327 260Z" fill="#4D5AFE"/>
<path d="M347 116.5C347 122.851 341.851 128 335.5 128C329.149 128 324 122.851 324 116.5C324 110.149 329.149 105 335.5 105C341.851 105 347 110.149 347 116.5Z" fill="#4D5AFE"/>
<path d="M287 196.5C287 203.404 281.404 209 274.5 209C267.596 209 262 203.404 262 196.5C262 189.596 267.596 184 274.5 184C281.404 184 287 189.596 287 196.5Z" fill="#4D5AFE"/>
<path d="M177 191C177 198.18 171.18 204 164 204C156.82 204 151 198.18 151 191C151 183.82 156.82 178 164 178C171.18 178 177 183.82 177 191Z" fill="#4D5AFE"/>
<path d="M110 178C110 185.18 104.18 191 97 191C89.8203 191 84 185.18 84 178C84 170.82 89.8203 165 97 165C104.18 165 110 170.82 110 178Z" fill="#4D5AFE"/>
<path d="M233 252.5C233 259.404 227.404 265 220.5 265C213.596 265 208 259.404 208 252.5C208 245.596 213.596 240 220.5 240C227.404 240 233 245.596 233 252.5Z" fill="#4D5AFE"/>
<path d="M156 107.5C156 113.851 150.851 119 144.5 119C138.149 119 133 113.851 133 107.5C133 101.149 138.149 96 144.5 96C150.851 96 156 101.149 156 107.5Z" fill="#4D5AFE"/>
<path d="M90 123C90 128.523 85.5228 133 80 133C74.4772 133 70 128.523 70 123C70 117.477 74.4772 113 80 113C85.5228 113 90 117.477 90 123Z" fill="#4D5AFE"/>
<path d="M263 67C263 72.5228 258.523 77 253 77C247.477 77 243 72.5228 243 67C243 61.4772 247.477 57 253 57C258.523 57 263 61.4772 263 67Z" fill="#4D5AFE"/>
<path d="M289 121C289 126.523 284.523 131 279 131C273.477 131 269 126.523 269 121C269 115.477 273.477 111 279 111C284.523 111 289 115.477 289 121Z" fill="#4D5AFE"/>
<path d="M221 131C221 136.523 216.523 141 211 141C205.477 141 201 136.523 201 131C201 125.477 205.477 121 211 121C216.523 121 221 125.477 221 131Z" fill="#4D5AFE"/>
<path d="M138 272C138 277.523 133.523 282 128 282C122.477 282 118 277.523 118 272C118 266.477 122.477 262 128 262C133.523 262 138 266.477 138 272Z" fill="#4D5AFE"/>
<path d="M178 46C178 50.9706 173.971 55 169 55C164.029 55 160 50.9706 160 46C160 41.0294 164.029 37 169 37C173.971 37 178 41.0294 178 46Z" fill="#4D5AFE"/>
<path fill-rule="evenodd" clip-rule="evenodd" d="M324.741 105.913C323.132 107.427 320.601 107.35 319.087 105.741L245.032 27.0344C243.518 25.4255 243.596 22.894 245.204 21.3802C246.813 19.8663 249.345 19.9434 250.859 21.5523L324.913 100.259C326.427 101.868 326.35 104.399 324.741 105.913Z" fill="#4D5AFE"/>
<path fill-rule="evenodd" clip-rule="evenodd" d="M106.517 22.3715C106.312 20.172 107.929 18.2224 110.128 18.0171L217.275 8.01716C219.475 7.81187 221.424 9.42857 221.63 11.6281C221.835 13.8277 220.218 15.7773 218.019 15.9825L110.872 25.9825C108.672 26.1878 106.723 24.5711 106.517 22.3715Z" fill="#4D5AFE"/>
<path fill-rule="evenodd" clip-rule="evenodd" d="M84.2556 36.6965C86.08 37.9423 86.5491 40.4311 85.3034 42.2555L25.8078 129.388C24.5621 131.213 22.0733 131.682 20.2489 130.436C18.4245 129.19 17.9554 126.701 19.2011 124.877L78.6966 37.7443C79.9424 35.9199 82.4312 35.4508 84.2556 36.6965Z" fill="#4D5AFE"/>
<path fill-rule="evenodd" clip-rule="evenodd" d="M15.6944 158.207C17.789 157.505 20.0562 158.634 20.7584 160.729L54.2942 260.765C54.9964 262.859 53.8676 265.126 51.773 265.828C49.6785 266.531 47.4112 265.402 46.7091 263.307L13.1733 163.271C12.4711 161.177 13.5999 158.91 15.6944 158.207Z" fill="#4D5AFE"/>
<path fill-rule="evenodd" clip-rule="evenodd" d="M68.9693 286.54C69.7756 284.483 72.0965 283.47 74.1533 284.276L172.383 322.783C174.439 323.589 175.453 325.91 174.647 327.967C173.841 330.024 171.52 331.038 169.463 330.231L71.2335 291.724C69.1767 290.918 68.163 288.597 68.9693 286.54Z" fill="#4D5AFE"/>
<path fill-rule="evenodd" clip-rule="evenodd" d="M204.569 325.747C203.433 323.852 204.048 321.396 205.943 320.259L296.429 266C298.324 264.864 300.781 265.479 301.917 267.374C303.053 269.268 302.438 271.725 300.543 272.861L210.057 327.12C208.162 328.257 205.706 327.642 204.569 325.747Z" fill="#4D5AFE"/>
<path fill-rule="evenodd" clip-rule="evenodd" d="M318.258 244.011C316.067 243.733 314.516 241.73 314.795 239.538L328.113 134.875C328.392 132.683 330.394 131.133 332.586 131.412C334.777 131.691 336.328 133.693 336.049 135.885L322.731 240.548C322.452 242.74 320.449 244.29 318.258 244.011Z" fill="#4D5AFE"/>
<path fill-rule="evenodd" clip-rule="evenodd" d="M90.3242 39.0175C91.9713 39.1965 93.1615 40.6769 92.9824 42.3241L85.9769 106.776C85.7979 108.424 84.3174 109.614 82.6703 109.435C81.0231 109.256 79.833 107.775 80.012 106.128L87.0176 41.6757C87.1966 40.0286 88.677 38.8385 90.3242 39.0175Z" fill="#4D5AFE"/>
<path fill-rule="evenodd" clip-rule="evenodd" d="M101.521 39.4533C102.927 38.5775 104.778 39.0076 105.653 40.414L135.547 88.414C136.422 89.8204 135.992 91.6706 134.586 92.5464C133.179 93.4223 131.329 92.9922 130.453 91.5858L100.56 43.5858C99.6845 42.1794 100.115 40.3292 101.521 39.4533Z" fill="#4D5AFE"/>
<path fill-rule="evenodd" clip-rule="evenodd" d="M156.355 42.9227C155.845 44.4992 154.154 45.3641 152.577 44.8544L109.27 30.8545C107.694 30.3448 106.829 28.6537 107.338 27.0771C107.848 25.5006 109.539 24.6357 111.116 25.1454L154.423 39.1453C155.999 39.655 156.864 41.3461 156.355 42.9227Z" fill="#4D5AFE"/>
<path fill-rule="evenodd" clip-rule="evenodd" d="M238.407 63.7431C237.996 65.3483 236.362 66.3169 234.757 65.9065L184.257 52.9952C182.652 52.5848 181.683 50.9508 182.093 49.3456C182.504 47.7404 184.138 46.7718 185.743 47.1822L236.243 60.0935C237.848 60.5039 238.817 62.1378 238.407 63.7431Z" fill="#4D5AFE"/>
<path fill-rule="evenodd" clip-rule="evenodd" d="M150.868 90.7782C149.334 90.153 148.596 88.4024 149.222 86.868L160.222 59.868C160.847 58.3336 162.598 57.5965 164.132 58.2216C165.666 58.8467 166.403 60.5974 165.778 62.1318L154.778 89.1318C154.153 90.6662 152.402 91.4033 150.868 90.7782Z" fill="#4D5AFE"/>
<path fill-rule="evenodd" clip-rule="evenodd" d="M203.801 117.203C202.309 117.922 200.516 117.294 199.797 115.801L173.797 61.8015C173.078 60.3087 173.706 58.5158 175.199 57.797C176.691 57.0783 178.484 57.7058 179.203 59.1986L205.203 113.199C205.922 114.691 205.294 116.484 203.801 117.203Z" fill="#4D5AFE"/>
<path fill-rule="evenodd" clip-rule="evenodd" d="M220.4 117.538C218.998 116.654 218.579 114.801 219.463 113.4L239.963 80.8997C240.847 79.4983 242.699 79.0788 244.101 79.9628C245.502 80.8467 245.921 82.6993 245.037 84.1007L224.538 116.601C223.654 118.002 221.801 118.422 220.4 117.538Z" fill="#4D5AFE"/>
<path fill-rule="evenodd" clip-rule="evenodd" d="M220.143 18.58C220.927 20.0395 220.379 21.8584 218.92 22.6426L185.42 40.6426C183.96 41.4269 182.141 40.8794 181.357 39.4199C180.573 37.9604 181.12 36.1415 182.58 35.3573L216.08 17.3573C217.54 16.5731 219.358 17.1205 220.143 18.58Z" fill="#4D5AFE"/>
<path fill-rule="evenodd" clip-rule="evenodd" d="M248.927 52.8531C247.351 53.3652 245.659 52.503 245.147 50.9272L238.647 30.9271C238.135 29.3514 238.997 27.6589 240.573 27.1468C242.148 26.6347 243.841 27.4969 244.353 29.0727L250.853 49.0728C251.365 50.6485 250.503 52.341 248.927 52.8531Z" fill="#4D5AFE"/>
<path fill-rule="evenodd" clip-rule="evenodd" d="M320.047 108.085C319.171 109.492 317.321 109.923 315.915 109.047L266.915 78.5469C265.508 77.6714 265.077 75.8213 265.953 74.4147C266.829 73.0081 268.679 72.5776 270.085 73.4531L319.085 103.953C320.492 104.829 320.922 106.679 320.047 108.085Z" fill="#4D5AFE"/>
<path fill-rule="evenodd" clip-rule="evenodd" d="M271.765 107.72C270.263 108.419 268.478 107.767 267.78 106.265L257.78 84.765C257.081 83.2627 257.733 81.4784 259.235 80.7796C260.737 80.0809 262.521 80.7323 263.22 82.2346L273.22 103.735C273.919 105.237 273.267 107.021 271.765 107.72Z" fill="#4D5AFE"/>
<path fill-rule="evenodd" clip-rule="evenodd" d="M263.469 124.069C263.707 125.709 262.571 127.231 260.931 127.469L229.931 131.969C228.291 132.207 226.769 131.071 226.531 129.431C226.293 127.791 227.429 126.269 229.069 126.031L260.069 121.531C261.709 121.293 263.231 122.429 263.469 124.069Z" fill="#4D5AFE"/>
<path fill-rule="evenodd" clip-rule="evenodd" d="M196.818 126.529C196.25 128.085 194.528 128.886 192.971 128.318L161.471 116.818C159.915 116.25 159.114 114.528 159.682 112.971C160.25 111.415 161.972 110.614 163.529 111.182L195.029 122.682C196.585 123.25 197.386 124.972 196.818 126.529Z" fill="#4D5AFE"/>
<path fill-rule="evenodd" clip-rule="evenodd" d="M126.92 111.313C127.3 112.926 126.3 114.541 124.687 114.92L99.1872 120.92C97.5744 121.3 95.9593 120.3 95.5798 118.687C95.2003 117.074 96.2001 115.459 97.8129 115.08L123.313 109.08C124.926 108.7 126.541 109.7 126.92 111.313Z" fill="#4D5AFE"/>
<path fill-rule="evenodd" clip-rule="evenodd" d="M66.3867 127.684C66.8377 129.278 65.9107 130.936 64.3164 131.387L30.8164 140.861C29.2221 141.312 27.5641 140.385 27.1132 138.791C26.6623 137.197 27.5892 135.539 29.1835 135.088L62.6835 125.613C64.2779 125.162 65.9358 126.089 66.3867 127.684Z" fill="#4D5AFE"/>
<path fill-rule="evenodd" clip-rule="evenodd" d="M80.309 170.553C79.7272 172.105 77.998 172.891 76.4466 172.309L28.4466 154.309C26.8952 153.727 26.1092 151.998 26.691 150.447C27.2727 148.895 29.002 148.109 30.5533 148.691L78.5533 166.691C80.1047 167.273 80.8907 169.002 80.309 170.553Z" fill="#4D5AFE"/>
<path fill-rule="evenodd" clip-rule="evenodd" d="M91.8769 160.369C90.2923 160.853 88.6153 159.961 88.1311 158.377L82.631 140.377C82.1469 138.792 83.0389 137.115 84.6234 136.631C86.2079 136.147 87.885 137.039 88.3691 138.623L93.8692 156.623C94.3534 158.208 93.4614 159.885 91.8769 160.369Z" fill="#4D5AFE"/>
<path fill-rule="evenodd" clip-rule="evenodd" d="M107.844 162.502C106.462 161.587 106.084 159.726 106.998 158.344L130.498 122.844C131.413 121.462 133.274 121.084 134.656 121.998C136.038 122.913 136.416 124.774 135.502 126.156L112.001 161.656C111.087 163.038 109.226 163.416 107.844 162.502Z" fill="#4D5AFE"/>
<path fill-rule="evenodd" clip-rule="evenodd" d="M159.689 173.92C158.076 174.3 156.461 173.302 156.08 171.689L145.58 127.189C145.2 125.576 146.198 123.961 147.811 123.58C149.424 123.2 151.039 124.199 151.42 125.811L161.92 170.311C162.3 171.924 161.302 173.539 159.689 173.92Z" fill="#4D5AFE"/>
<path fill-rule="evenodd" clip-rule="evenodd" d="M123.423 257.855C121.846 258.364 120.155 257.499 119.645 255.923L101.543 199.923C101.033 198.347 101.898 196.655 103.475 196.146C105.051 195.636 106.742 196.501 107.252 198.078L125.355 254.077C125.864 255.654 124.999 257.345 123.423 257.855Z" fill="#4D5AFE"/>
<path fill-rule="evenodd" clip-rule="evenodd" d="M61.3822 266.284C59.8446 265.667 59.0987 263.92 59.716 262.382L86.216 196.382C86.8333 194.845 88.5802 194.099 90.1178 194.716C91.6553 195.333 92.4013 197.08 91.7839 198.618L65.284 264.618C64.6666 266.155 62.9197 266.901 61.3822 266.284Z" fill="#4D5AFE"/>
<path fill-rule="evenodd" clip-rule="evenodd" d="M113.986 274.714C114.144 276.363 112.936 277.828 111.286 277.986L74.7863 281.486C73.1371 281.645 71.6718 280.436 71.5137 278.786C71.3555 277.137 72.5643 275.672 74.2136 275.514L110.714 272.014C112.363 271.856 113.828 273.064 113.986 274.714Z" fill="#4D5AFE"/>
<path fill-rule="evenodd" clip-rule="evenodd" d="M178.182 320.059C177.045 321.264 175.146 321.319 173.941 320.182L138.441 286.682C137.236 285.545 137.181 283.646 138.318 282.441C139.455 281.236 141.354 281.181 142.559 282.318L178.059 315.818C179.264 316.955 179.319 318.854 178.182 320.059Z" fill="#4D5AFE"/>
<path fill-rule="evenodd" clip-rule="evenodd" d="M134.84 258.267C133.312 257.626 132.593 255.868 133.233 254.34L152.733 207.84C153.374 206.312 155.132 205.593 156.66 206.234C158.188 206.874 158.907 208.632 158.267 210.16L138.767 256.66C138.126 258.188 136.368 258.907 134.84 258.267Z" fill="#4D5AFE"/>
<path fill-rule="evenodd" clip-rule="evenodd" d="M146.958 187.002C146.68 188.636 145.131 189.735 143.498 189.458L116.998 184.958C115.364 184.68 114.265 183.131 114.542 181.498C114.82 179.864 116.369 178.765 118.002 179.042L144.502 183.542C146.136 183.82 147.235 185.369 146.958 187.002Z" fill="#4D5AFE"/>
<path fill-rule="evenodd" clip-rule="evenodd" d="M202.476 143.742C203.722 144.833 203.849 146.729 202.758 147.976L178.258 175.976C177.167 177.223 175.271 177.349 174.025 176.258C172.778 175.167 172.651 173.272 173.742 172.025L198.242 144.025C199.333 142.778 201.229 142.651 202.476 143.742Z" fill="#4D5AFE"/>
<path fill-rule="evenodd" clip-rule="evenodd" d="M256.998 195.109C256.938 196.764 255.547 198.058 253.891 197.998L184.891 195.498C183.236 195.438 181.942 194.047 182.002 192.391C182.062 190.736 183.453 189.442 185.109 189.502L254.109 192.002C255.764 192.062 257.058 193.453 256.998 195.109Z" fill="#4D5AFE"/>
<path fill-rule="evenodd" clip-rule="evenodd" d="M262.65 182.592C261.495 183.78 259.595 183.806 258.408 182.65L221.408 146.65C220.22 145.495 220.194 143.596 221.35 142.408C222.505 141.22 224.405 141.194 225.592 142.35L262.592 178.35C263.779 179.505 263.806 181.405 262.65 182.592Z" fill="#4D5AFE"/>
<path fill-rule="evenodd" clip-rule="evenodd" d="M275.838 178.496C274.184 178.406 272.915 176.992 273.004 175.338L275.004 138.338C275.094 136.683 276.507 135.415 278.162 135.504C279.816 135.594 281.085 137.007 280.995 138.662L278.996 175.662C278.906 177.316 277.492 178.585 275.838 178.496Z" fill="#4D5AFE"/>
<path fill-rule="evenodd" clip-rule="evenodd" d="M317.999 118.421C318.043 120.077 316.735 121.455 315.079 121.499L296.079 121.999C294.423 122.043 293.045 120.735 293.001 119.079C292.957 117.423 294.265 116.045 295.921 116.001L314.921 115.501C316.577 115.458 317.955 116.765 317.999 118.421Z" fill="#4D5AFE"/>
<path fill-rule="evenodd" clip-rule="evenodd" d="M324.812 130.109C326.133 131.11 326.392 132.992 325.391 134.312L289.391 181.812C288.39 183.133 286.508 183.392 285.188 182.391C283.867 181.39 283.608 179.508 284.609 178.188L320.609 130.688C321.61 129.368 323.492 129.108 324.812 130.109Z" fill="#4D5AFE"/>
<path fill-rule="evenodd" clip-rule="evenodd" d="M262.618 209.375C263.791 210.544 263.795 212.444 262.625 213.617L235.125 241.215C233.956 242.389 232.056 242.392 230.882 241.223C229.709 240.053 229.705 238.154 230.875 236.98L258.375 209.382C259.544 208.209 261.444 208.205 262.618 209.375Z" fill="#4D5AFE"/>
<path fill-rule="evenodd" clip-rule="evenodd" d="M305.644 245.009C304.258 245.917 302.399 245.53 301.491 244.144L282.49 215.144C281.582 213.758 281.97 211.899 283.356 210.991C284.742 210.083 286.601 210.47 287.509 211.856L306.509 240.856C307.417 242.242 307.03 244.101 305.644 245.009Z" fill="#4D5AFE"/>
<path fill-rule="evenodd" clip-rule="evenodd" d="M298.994 258.689C298.89 260.342 297.465 261.598 295.811 261.494L240.311 257.994C238.658 257.89 237.402 256.465 237.506 254.811C237.61 253.158 239.035 251.902 240.689 252.006L296.189 255.506C297.842 255.61 299.098 257.035 298.994 258.689Z" fill="#4D5AFE"/>
<path fill-rule="evenodd" clip-rule="evenodd" d="M208.499 240.237C207.264 241.341 205.367 241.235 204.263 239.999L174.763 206.999C173.659 205.764 173.765 203.868 175.001 202.763C176.236 201.659 178.132 201.765 179.237 203.001L208.736 236.001C209.841 237.236 209.734 239.132 208.499 240.237Z" fill="#4D5AFE"/>
<path fill-rule="evenodd" clip-rule="evenodd" d="M202.95 256.954C203.252 258.583 202.175 260.148 200.546 260.45L146.546 270.45C144.917 270.752 143.352 269.675 143.05 268.046C142.748 266.417 143.825 264.852 145.454 264.55L199.454 254.55C201.083 254.249 202.648 255.325 202.95 256.954Z" fill="#4D5AFE"/>
<path fill-rule="evenodd" clip-rule="evenodd" d="M195.925 317.301C194.378 316.707 193.606 314.972 194.199 313.425L210.699 270.425C211.293 268.878 213.028 268.105 214.575 268.699C216.122 269.293 216.894 271.028 216.301 272.575L199.801 315.575C199.207 317.122 197.472 317.894 195.925 317.301Z" fill="#4D5AFE"/>
<path d="M709.54 201.96C705.06 201.96 700.767 201.373 696.66 200.2C692.553 198.973 689.247 197.4 686.74 195.48L691.14 185.72C693.54 187.427 696.367 188.84 699.62 189.96C702.927 191.027 706.26 191.56 709.62 191.56C712.18 191.56 714.233 191.32 715.78 190.84C717.38 190.307 718.553 189.587 719.3 188.68C720.047 187.773 720.42 186.733 720.42 185.56C720.42 184.067 719.833 182.893 718.66 182.04C717.487 181.133 715.94 180.413 714.02 179.88C712.1 179.293 709.967 178.76 707.62 178.28C705.327 177.747 703.007 177.107 700.66 176.36C698.367 175.613 696.26 174.653 694.34 173.48C692.42 172.307 690.847 170.76 689.62 168.84C688.447 166.92 687.86 164.467 687.86 161.48C687.86 158.28 688.713 155.373 690.42 152.76C692.18 150.093 694.793 147.987 698.26 146.44C701.78 144.84 706.18 144.04 711.46 144.04C714.98 144.04 718.447 144.467 721.86 145.32C725.273 146.12 728.287 147.347 730.9 149L726.9 158.84C724.287 157.347 721.673 156.253 719.06 155.56C716.447 154.813 713.887 154.44 711.38 154.44C708.873 154.44 706.82 154.733 705.22 155.32C703.62 155.907 702.473 156.68 701.78 157.64C701.087 158.547 700.74 159.613 700.74 160.84C700.74 162.28 701.327 163.453 702.5 164.36C703.673 165.213 705.22 165.907 707.14 166.44C709.06 166.973 711.167 167.507 713.46 168.04C715.807 168.573 718.127 169.187 720.42 169.88C722.767 170.573 724.9 171.507 726.82 172.68C728.74 173.853 730.287 175.4 731.46 177.32C732.687 179.24 733.3 181.667 733.3 184.6C733.3 187.747 732.42 190.627 730.66 193.24C728.9 195.853 726.26 197.96 722.74 199.56C719.273 201.16 714.873 201.96 709.54 201.96Z" fill="#373D46"/>
<path d="M629.968 201V145H657.328C664.368 145 669.648 146.333 673.168 149C676.741 151.667 678.528 155.187 678.528 159.56C678.528 162.493 677.808 165.053 676.368 167.24C674.928 169.373 672.955 171.027 670.448 172.2C667.941 173.373 665.061 173.96 661.808 173.96L663.328 170.68C666.848 170.68 669.968 171.267 672.688 172.44C675.408 173.56 677.515 175.24 679.008 177.48C680.555 179.72 681.328 182.467 681.328 185.72C681.328 190.52 679.435 194.28 675.648 197C671.861 199.667 666.288 201 658.928 201H629.968ZM642.848 191.24H657.968C661.328 191.24 663.861 190.707 665.568 189.64C667.328 188.52 668.208 186.76 668.208 184.36C668.208 182.013 667.328 180.28 665.568 179.16C663.861 177.987 661.328 177.4 657.968 177.4H641.888V167.96H655.728C658.875 167.96 661.275 167.427 662.928 166.36C664.635 165.24 665.488 163.56 665.488 161.32C665.488 159.133 664.635 157.507 662.928 156.44C661.275 155.32 658.875 154.76 655.728 154.76H642.848V191.24Z" fill="#373D46"/>
<path d="M588.216 167.56H615.176V177.64H588.216V167.56ZM589.176 190.6H619.656V201H576.296V145H618.616V155.4H589.176V190.6Z" fill="#373D46"/>
<path d="M497.861 201L479.541 145H492.981L508.901 194.6H502.181L518.821 145H530.821L546.821 194.6H540.341L556.661 145H569.061L550.741 201H536.821L522.661 157.48H526.341L511.781 201H497.861Z" fill="#373D46"/>
<path d="M453.191 183.48V173.48H475.831V183.48H453.191Z" fill="#373D46"/>
<path d="M422.04 201.96C417.56 201.96 413.267 201.373 409.16 200.2C405.053 198.973 401.747 197.4 399.24 195.48L403.64 185.72C406.04 187.427 408.867 188.84 412.12 189.96C415.427 191.027 418.76 191.56 422.12 191.56C424.68 191.56 426.733 191.32 428.28 190.84C429.88 190.307 431.053 189.587 431.8 188.68C432.547 187.773 432.92 186.733 432.92 185.56C432.92 184.067 432.333 182.893 431.16 182.04C429.987 181.133 428.44 180.413 426.52 179.88C424.6 179.293 422.467 178.76 420.12 178.28C417.827 177.747 415.507 177.107 413.16 176.36C410.867 175.613 408.76 174.653 406.84 173.48C404.92 172.307 403.347 170.76 402.12 168.84C400.947 166.92 400.36 164.467 400.36 161.48C400.36 158.28 401.213 155.373 402.92 152.76C404.68 150.093 407.293 147.987 410.76 146.44C414.28 144.84 418.68 144.04 423.96 144.04C427.48 144.04 430.947 144.467 434.36 145.32C437.773 146.12 440.787 147.347 443.4 149L439.4 158.84C436.787 157.347 434.173 156.253 431.56 155.56C428.947 154.813 426.387 154.44 423.88 154.44C421.373 154.44 419.32 154.733 417.72 155.32C416.12 155.907 414.973 156.68 414.28 157.64C413.587 158.547 413.24 159.613 413.24 160.84C413.24 162.28 413.827 163.453 415 164.36C416.173 165.213 417.72 165.907 419.64 166.44C421.56 166.973 423.667 167.507 425.96 168.04C428.307 168.573 430.627 169.187 432.92 169.88C435.267 170.573 437.4 171.507 439.32 172.68C441.24 173.853 442.787 175.4 443.96 177.32C445.187 179.24 445.8 181.667 445.8 184.6C445.8 187.747 444.92 190.627 443.16 193.24C441.4 195.853 438.76 197.96 435.24 199.56C431.773 201.16 427.373 201.96 422.04 201.96Z" fill="#373D46"/>
</svg>
